<svg width="20" height="16" viewBox="0 0 20 16" fill="none" xmlns="http://www.w3.org/2000/svg">
<path d="M5.12685 12.4879C3.51247 11.3416 2.23497 9.85062 1.5131 8.90912C1.31124 8.64923 1.20166 8.32952 1.20166 8.00044C1.20166 7.67136 1.31124 7.35165 1.5131 7.09175C2.81947 5.38637 5.95372 1.875 9.61297 1.875C11.2545 1.875 12.7892 2.58113 14.1017 3.51475" stroke="#B6B0AA" stroke-width="2" stroke-linecap="round" stroke-linejoin="round"/>
<path d="M11.4764 6.15118C11.2334 5.90414 10.9439 5.70766 10.6246 5.57306C10.3053 5.43846 9.96249 5.36842 9.61598 5.36697C9.26946 5.36551 8.92609 5.43268 8.60566 5.5646C8.28524 5.69652 7.9941 5.89057 7.74904 6.13557C7.50399 6.38057 7.30987 6.67166 7.17787 6.99205C7.04588 7.31245 6.97863 7.65581 6.98 8.00232C6.98137 8.34884 7.05133 8.69165 7.18586 9.01099C7.32038 9.33034 7.5168 9.61988 7.76378 9.86293" stroke="#B6B0AA" stroke-width="2" stroke-linecap="round" stroke-linejoin="round"/>
<path d="M2.61279 15L16.6128 1" stroke="#B6B0AA" stroke-width="2" stroke-linecap="round" stroke-linejoin="round"/>
<path d="M7.86279 13.866C8.43085 14.0351 9.02011 14.1223 9.61279 14.125C13.272 14.125 16.4063 10.6136 17.7127 8.90825C17.9145 8.64812 18.0239 8.32821 18.0238 7.99898C18.0236 7.66974 17.9138 7.34994 17.7118 7.09C17.2527 6.49105 16.7601 5.91848 16.2365 5.375" stroke="#B6B0AA" stroke-width="2" stroke-linecap="round" stroke-linejoin="round"/>
</svg>
